<svg xmlns="http://www.w3.org/2000/svg" xmlns:xlink="http://www.w3.org/1999/xlink" version="1.1" x="0px" y="0px" width="500px" height="421px" viewBox="0 0 500 421" enable-background="new 0 0 500 421" xml:space="preserve">
<g id="BACKGROUND">
</g>
<g id="OBJECTS">
</g>
<g id="DESIGNED_BY_FREEPIK">
	<path fill="#F2F2F2" d="M270.616,122.979c3.83,1.662,7.42,3.504,10.674,5.467c11.377,6.859,20.529,16.844,31.709,23.723   c10.557,6.494,23.449,8.074,35.529,9.158c21.057,1.893,64.975,20.043,57.045,53.684c-2.885,12.242-13.059,20.557-18.268,31.643   c-5.541,11.793-4.959,26.5-13.781,36.725c-3.881,4.494-9.238,7.463-14.738,9.713c-36.604,14.961-77.709,14.266-116.521,12.617   c-30.635-1.303-79.838,5.578-106.746-11.223c-13.359-8.34-6.412-31.143-15.656-43.389c-7.768-10.291-18.34-17.049-23.533-29.932   c-8.838-21.918,3.76-50.443,25.816-58.225c13.783-4.861,28.385-7.09,42.01-12.43c14.076-5.518,19.5-13.785,30.234-23.568   C213.796,109.258,246.825,112.65,270.616,122.979z"/>
	<g>
		<g>
			<g>
				<g>
					<path fill="#0E538C" d="M223.595,212.76c0,0,0.036-0.13,0.093-0.381c0,0,0,0,0-0.008l12.943-10.87l-12.266-2.316       c-0.016-0.086-0.021-0.173-0.036-0.26l12.798,2.482"/>
				</g>
			</g>
			<path opacity="0.7" fill="#FFBE55" d="M141.214,212.767c0.409-0.007,0.82-0.007,1.224-0.007     c-0.533,0.072-1.064,0.136-1.598,0.194c-0.007,0-0.007,0-0.014,0c-0.533,0.058-1.065,0.107-1.59,0.158     c-0.051,0.008-0.094,0.008-0.145,0.015c-0.812,0.071-1.619,0.13-2.402,0.181h-0.036c-4.582,0.287-8.611,0.222-10.985,0.129     h-0.043c-0.396-0.015-0.734-0.029-1.029-0.043c-0.035,0-0.065-0.008-0.101-0.008c-0.151-0.008-0.28-0.015-0.402-0.021     c-0.03,0-0.059,0-0.087-0.007c-0.058,0-0.102,0-0.145-0.009c-0.057,0-0.108-0.006-0.15-0.006c-0.028,0-0.051-0.007-0.072-0.007     c-0.058,0-0.102-0.007-0.13-0.007h-0.028c-0.029,0-0.043-0.008-0.043-0.008s0.058-0.028,0.15-0.079     c0.021-0.015,0.044-0.029,0.066-0.044c0.021-0.008,0.05-0.028,0.078-0.043c0.021-0.006,0.043-0.021,0.064-0.035     c0.036-0.021,0.079-0.044,0.123-0.072c0.021-0.015,0.051-0.029,0.078-0.043c0.043-0.029,0.095-0.051,0.145-0.087     c0.021-0.007,0.043-0.022,0.064-0.035c0.064-0.036,0.137-0.079,0.217-0.123c0,0,0,0,0.006-0.007     c0.086-0.044,0.173-0.102,0.267-0.15c0,0,0,0,0-0.008c2.094-1.223,6.151-3.697,7.224-5.043h0.006     c0.044-0.058,0.087-0.115,0.123-0.173v-0.008c0.035-0.051,0.064-0.108,0.086-0.157c0.064-0.145,0.072-0.273,0.007-0.367     c-0.812-1.151-10.524-7.152-10.524-7.152c8.065,0.756,14.353-2.481,22.61-4.143c0.556,1.338,1.368,3.424,1.311,4.69     C145.43,202.673,142.136,209.493,141.214,212.767z"/>
			<path fill="#F9F9F9" d="M144.947,195.408c0.008,0.013,0.015,0.021,0.022,0.035c-0.23,0.015-0.461,0.101-0.684,0.101     C144.502,195.494,144.725,195.45,144.947,195.408z"/>
			<path fill="#F9F9F9" d="M147.221,202.214c-0.014,0.1-0.028,0.201-0.042,0.309c-0.021,0.102-0.044,0.201-0.072,0.303     C147.157,202.624,147.192,202.422,147.221,202.214z"/>
			<g>
				<path opacity="0.9" fill="#FFBE55" d="M147.221,202.214c-0.028,0.208-0.063,0.41-0.114,0.611c0,0.014,0,0.021-0.008,0.035      c-0.028,0.123-0.071,0.246-0.115,0.367c-0.114,0.324-0.272,0.633-0.475,0.928c-0.338,0.497-0.641,1.022-0.899,1.568      c-0.18,0.36-0.33,0.727-0.474,1.102v0.007c-0.146,0.374-0.274,0.748-0.39,1.122c-0.51,1.684-0.74,3.352-0.763,4.59      c-0.517,0.079-1.028,0.152-1.546,0.216c-0.403,0-0.814,0-1.224,0.007c0.922-3.273,4.216-10.094,4.324-12.524      c0.058-1.267-0.755-3.353-1.311-4.69c0.009-0.008,0.022-0.008,0.037-0.008h0.021c0.223,0,0.453-0.086,0.684-0.101      c0.129,0.194,0.272,0.418,0.424,0.662c0.642,1.064,1.374,2.504,1.698,3.985c0.029,0.115,0.051,0.223,0.065,0.338      c0.015,0.094,0.028,0.188,0.042,0.281c0.021,0.145,0.037,0.287,0.044,0.424c0.007,0.072,0.014,0.151,0.007,0.223      C147.265,201.645,147.257,201.933,147.221,202.214z"/>
				<path fill="#FFBE55" d="M144.228,195.544h0.037c-0.015,0-0.028,0-0.037,0.008V195.544z"/>
				<path fill="#FFBE55" d="M145.136,206.825c0.144-0.375,0.294-0.741,0.474-1.102C145.438,206.084,145.279,206.45,145.136,206.825z      "/>
			</g>
			<g>
				<path fill="#1F87C4" d="M157.754,209.206c-0.008,0.015-0.016,0.028-0.021,0.043c0-0.015,0.006-0.028,0.014-0.043H157.754z"/>
			</g>
			<g>
				<path fill="#FFBE55" d="M157.488,210.155c-0.174,1.15,0.035,2.504,0.222,3.367c0.102,0.496-0.309,0.957-0.899,1.021      c-4.295,0.468-7.129,0.583-8.992,0.539c-0.633-0.014-1.15-0.043-1.583-0.086c-0.107-0.014-0.209-0.021-0.302-0.036      c-0.166-0.021-0.31-0.042-0.439-0.064c-0.057-0.007-0.107-0.015-0.149-0.028c-0.146-0.022-0.274-0.051-0.383-0.087      c-0.035-0.007-0.072-0.014-0.107-0.028c-0.036-0.008-0.065-0.021-0.094-0.029c-0.087-0.028-0.158-0.05-0.216-0.079      c-0.036-0.015-0.064-0.028-0.094-0.043c-0.035-0.021-0.064-0.036-0.086-0.05c-0.058-0.037-0.086-0.065-0.108-0.086      c-0.007-0.008-0.007-0.016-0.007-0.016c-0.022-0.021-0.022-0.029-0.022-0.029s0.009-0.006,0.016-0.014      c0.107-0.102,0.741-0.697,1.827-1.461c0.488-0.344,1.079-0.719,1.748-1.107c1.842-1.028,4.324-2.072,7.303-2.46      c0.432-0.065,0.878-0.108,1.338-0.138c0.424-0.028,0.849-0.035,1.287-0.035c-0.008,0.015-0.014,0.028-0.014,0.043      c-0.016,0.029-0.029,0.058-0.036,0.087c-0.028,0.071-0.058,0.144-0.079,0.223c-0.015,0.036-0.021,0.079-0.029,0.115      c-0.021,0.071-0.036,0.136-0.051,0.209C157.517,209.976,157.501,210.062,157.488,210.155z"/>
			</g>
			<g opacity="0.7">
				<path fill="#FFBE55" d="M223.688,212.371c0,0.008,0,0.008,0,0.008c-0.057,0.251-0.093,0.381-0.093,0.381      c-0.245,0.187-0.504,0.374-0.791,0.548c-6.647,4.136-24.145,4.553-60.878-3.627c-1.46-0.324-2.848-0.468-4.172-0.475h-0.008      c-0.438,0-0.863,0.007-1.287,0.035c-0.46,0.029-0.906,0.072-1.338,0.138c-2.979,0.388-5.461,1.432-7.303,2.46      c-0.669,0.389-1.26,0.764-1.748,1.107c-1.086,0.764-1.72,1.359-1.827,1.461c-0.007,0.008-0.016,0.014-0.016,0.014      c-0.157-0.229-0.251-0.812-0.251-1.611c0-0.086,0-0.171,0.007-0.266c0.022-1.238,0.253-2.906,0.763-4.59      c0.115-0.374,0.244-0.748,0.39-1.122v-0.007c0.144-0.375,0.302-0.741,0.474-1.102c0.259-0.546,0.562-1.071,0.899-1.568      c0.202-0.295,0.36-0.604,0.475-0.928c0.044-0.121,0.087-0.244,0.115-0.367c0.008-0.014,0.008-0.021,0.008-0.035      c0.028-0.102,0.051-0.201,0.072-0.303c0.014-0.072,0.028-0.15,0.028-0.23c0.021-0.078,0.029-0.15,0.029-0.237      c0.014-0.13,0.021-0.266,0.021-0.396c0-0.102,0-0.201-0.007-0.303c0.007-0.071,0-0.15-0.007-0.223      c-0.007-0.137-0.022-0.279-0.044-0.424c-0.014-0.094-0.027-0.188-0.042-0.281c-0.015-0.115-0.036-0.223-0.065-0.338      c-0.324-1.481-1.057-2.921-1.698-3.985c-0.151-0.244-0.295-0.468-0.424-0.662c-0.008-0.014-0.015-0.022-0.022-0.035      c0-0.008-0.007-0.008-0.007-0.016c-0.476-0.726-0.389-1.618,0.237-2.259c1.539-1.604,5.324-4.244,13.892-5.058      c12.569-1.193,31.41,7.878,44.259,9.569c12.85,1.697,20.792-0.08,20.792-0.08c0.079,0.453,0.151,0.913,0.209,1.359      c0.015,0.087,0.021,0.174,0.036,0.26C225.156,205.493,224.041,210.911,223.688,212.371z"/>
				<path fill="#FFBE55" d="M145.609,205.724c-0.172,0.36-0.33,0.727-0.474,1.102C145.279,206.45,145.43,206.084,145.609,205.724z"/>
			</g>
		</g>
		<g>
			<path fill="#0E538C" d="M324.656,232.521c-4.883,0-10.118-0.276-15.503-0.804v11.65c0,1.712,1.147,3.116,2.55,3.116h33.357     c1.403,0,2.912-1.327,3.361-2.956l4.254-15.412C345.65,230.911,336.414,232.521,324.656,232.521z M318.312,241.567h-1.915     c-0.996,0-1.81-1.007-1.81-2.233c0-1.231,0.813-2.239,1.81-2.239h1.915c0.993,0,1.806,1.008,1.806,2.239     C320.117,240.561,319.305,241.567,318.312,241.567z M324.277,241.567h-1.914c-0.992,0-1.807-1.007-1.807-2.233     c0-1.231,0.814-2.239,1.807-2.239h1.914c0.998,0,1.811,1.008,1.811,2.239C326.088,240.561,325.275,241.567,324.277,241.567z      M330.25,241.567h-1.922c-0.991,0-1.805-1.007-1.805-2.233c0-1.231,0.813-2.239,1.805-2.239h1.922     c0.991,0,1.805,1.008,1.805,2.239C332.055,240.561,331.241,241.567,330.25,241.567z M336.521,241.567h-1.916     c-0.998,0-1.81-1.007-1.81-2.233c0-1.231,0.812-2.239,1.81-2.239h1.916c0.99,0,1.804,1.008,1.804,2.239     C338.324,240.561,337.511,241.567,336.521,241.567z M342.485,241.567h-1.915c-0.992,0-1.805-1.007-1.805-2.233     c0-1.231,0.812-2.239,1.805-2.239h1.915c0.997,0,1.81,1.008,1.81,2.239C344.295,240.561,343.482,241.567,342.485,241.567z"/>
			<path fill="#2A94F4" d="M320.117,239.334c0,1.227-0.812,2.233-1.806,2.233h-1.915c-0.996,0-1.81-1.007-1.81-2.233     c0-1.231,0.813-2.239,1.81-2.239h1.915C319.305,237.095,320.117,238.103,320.117,239.334z"/>
			<path fill="#2A94F4" d="M326.088,239.334c0,1.227-0.812,2.233-1.811,2.233h-1.914c-0.992,0-1.807-1.007-1.807-2.233     c0-1.231,0.814-2.239,1.807-2.239h1.914C325.275,237.095,326.088,238.103,326.088,239.334z"/>
			<path fill="#2A94F4" d="M332.055,239.334c0,1.227-0.813,2.233-1.805,2.233h-1.922c-0.991,0-1.805-1.007-1.805-2.233     c0-1.231,0.813-2.239,1.805-2.239h1.922C331.241,237.095,332.055,238.103,332.055,239.334z"/>
			<path fill="#2A94F4" d="M338.324,239.334c0,1.227-0.813,2.233-1.804,2.233h-1.916c-0.998,0-1.81-1.007-1.81-2.233     c0-1.231,0.812-2.239,1.81-2.239h1.916C337.511,237.095,338.324,238.103,338.324,239.334z"/>
			<path fill="#2A94F4" d="M344.295,239.334c0,1.227-0.812,2.233-1.81,2.233h-1.915c-0.992,0-1.805-1.007-1.805-2.233     c0-1.231,0.812-2.239,1.805-2.239h1.915C343.482,237.095,344.295,238.103,344.295,239.334z"/>
			<path opacity="0.9" fill="#0E538C" d="M366.92,203.517c0,4.193,0.861,7.812,2.105,9.518c-0.707,1.932-1.655,3.773-2.869,5.491     c-0.663-0.821-1.326-1.824-1.95-2.967c-0.295-0.575-0.566-1.19-0.812-1.837c-0.576-1.498-1.026-3.174-1.326-4.969     c-0.275-1.66-0.431-3.412-0.431-5.236c0-1.818,0.155-3.572,0.431-5.23c0.3-1.796,0.75-3.471,1.326-4.969     c0.241-0.635,0.508-1.239,0.799-1.809c0.624-1.154,1.296-2.166,1.964-2.996c1.214,1.717,2.162,3.561,2.869,5.49     C367.781,195.71,366.92,199.329,366.92,203.517z"/>
			<path opacity="0.9" fill="#FFBE55" d="M378.383,202.729c0,3.335-8.26,7.327-9.357,10.306c-1.244-1.706-2.105-5.324-2.105-9.518     c0-4.188,0.861-7.807,2.105-9.514C370.123,196.983,378.383,199.394,378.383,202.729z"/>
			<path opacity="0.8" fill="#FFBE55" d="M366.156,218.525c-2.986,3.894-7.412,7.181-13.48,9.591     c-7.025,2.795-16.262,4.405-28.02,4.405c-4.883,0-10.118-0.276-15.503-0.804c-14.002-1.363-28.997-4.402-41.315-8.561     c-11.497-3.886-20.661-8.742-24.498-14.132c-0.006,0-0.006-0.005-0.006-0.005c-0.019-0.025-0.032-0.043-0.042-0.061     c2.283-0.445,4.997-1.043,7.722-1.684c17.017,3.608,43.087,3.543,65.465,4.58c22.024,1.019,35.786-0.048,45.236-2.991     c0.12-0.035,0.236-0.077,0.353-0.112c0.3,1.795,0.75,3.471,1.326,4.969c0.246,0.646,0.518,1.262,0.812,1.837     C364.776,216.701,365.436,217.704,366.156,218.525z"/>
			<path opacity="0.5" fill="#FFBE55" d="M366.156,188.513c-0.727,0.83-1.389,1.842-1.964,2.996     c-0.291,0.569-0.558,1.174-0.799,1.809c-0.576,1.498-1.026,3.173-1.326,4.969c-0.116-0.036-0.232-0.07-0.349-0.113     c-9.449-2.938-23.211-4.01-45.24-2.991c-22.783,1.062-49.396,0.966-66.385,4.775c-2.303-0.528-4.562-1.025-6.526-1.411     c-0.18-0.035-0.354-0.064-0.527-0.101c3.561-5.425,12.542-10.335,23.946-14.274c17.156-5.924,39.797-9.655,57.67-9.655     C346.57,174.516,359.716,180.119,366.156,188.513z"/>
			<path opacity="0.7" fill="#FFBE55" d="M361.637,203.517c0,1.824,0.155,3.576,0.431,5.236c-0.116,0.035-0.232,0.077-0.353,0.112     c-9.45,2.943-23.212,4.01-45.236,2.991c-22.378-1.037-48.448-0.972-65.465-4.58c6.729-1.568,13.548-3.369,14.206-3.541h0.054     c0,0-0.011-0.006-0.025-0.006c0.015-0.006,0.025-0.012,0.025-0.012h-0.054c-0.692-0.184-8.109-2.139-15.126-3.761     c16.988-3.81,43.602-3.714,66.385-4.775c22.029-1.019,35.791,0.053,45.24,2.991c0.116,0.043,0.232,0.077,0.349,0.113     C361.792,199.944,361.637,201.698,361.637,203.517z"/>
			<path fill="#FFBE55" d="M265.248,203.729c0.015,0,0.025,0.006,0.025,0.006h-0.054c-0.658,0.172-7.477,1.973-14.206,3.541     c-2.725,0.641-5.438,1.238-7.722,1.684c-0.015,0-0.024,0.006-0.034,0.006c-1.225,0.236-2.328,0.427-3.237,0.545     c-1.069,0.154-1.883,0.209-2.337,0.148c-3.348-0.457-3.804-5.621-3.827-5.924h-0.005v-0.006c0-0.006,0-0.012,0-0.012h0.005     c0.023-0.302,0.479-5.468,3.827-5.924c0.449-0.059,1.258-0.006,2.322,0.144c0.861,0.116,1.888,0.288,3.034,0.508     c0.173,0.036,0.348,0.065,0.527,0.101c1.964,0.386,4.224,0.883,6.526,1.411c7.017,1.622,14.434,3.577,15.126,3.761h0.054     C265.273,203.718,265.263,203.724,265.248,203.729z"/>
			<path fill="#0E538C" d="M266.986,184.171c-11.404,3.939-20.386,8.85-23.946,14.274c-1.146-0.22-2.173-0.392-3.034-0.508     c-0.039-1.375,0.518-3.235,2.662-5.439c4.697-4.827-6.566-6.408-2.527-11.894C244.768,174.326,261.684,181.659,266.986,184.171z"/>
			<path fill="#0E538C" d="M267.838,223.157c-3.996,1.956-22.785,10.651-27.697,3.977c-4.039-5.486,7.225-7.068,2.527-11.895     c-2.299-2.364-2.768-4.331-2.647-5.729c0.909-0.118,2.013-0.309,3.237-0.545c0.023,0.018,0.048,0.035,0.076,0.055     c0,0,0,0.005,0.006,0.005C247.177,214.415,256.341,219.271,267.838,223.157z"/>
		</g>
	</g>
	<path fill="#CCE9FF" d="M160.051,280.856c0,4.388-3.559,7.945-7.947,7.945H95.08v-0.023c-6.637-0.424-11.896-5.943-11.896-12.688   c0-6.799,5.335-12.351,12.05-12.704c0.755-4.205,4.428-7.4,8.855-7.4c1.077,0,2.108,0.201,3.063,0.539   c1.101-4.026,4.004-7.307,7.784-8.932c1.648-0.707,3.465-1.108,5.375-1.108c4.843,0,9.101,2.525,11.518,6.329   c0.255-0.139,0.524-0.262,0.794-0.377c1.455-0.624,3.057-0.979,4.751-0.979c6.652,0,12.034,5.397,12.034,12.043   c0,0.608-0.038,1.209-0.131,1.794c2.856,1.755,4.912,4.673,5.536,8.1C157.863,274.504,160.051,277.422,160.051,280.856z"/>
	<path fill="#CCE9FF" d="M306.01,135.45h-3.05c0.05-0.01,0.11-0.021,0.16-0.03L306.01,135.45z"/>
	<path fill="#CCE9FF" d="M320.16,127.5c0,4.39-3.561,7.95-7.95,7.95h-6.2l-2.89-0.03c-0.05,0.01-0.11,0.021-0.16,0.03h-73.03v-0.03   c-4.649-0.29-6.66,0.88-8.62-3.09c0.74,0.17-0.529-3.51,0.091-3.12c1.6-4.57,5.909-7.88,11.029-7.88c0.04,0,0.09,0,0.13,0.01   c0.29-2.45,1.29-4.689,2.78-6.49c0-0.01,0-0.02,0.01-0.02c1.48-3.47,4.28-6.25,7.771-7.67c0.01,0,0.01-0.01,0.02-0.01   c1.141-0.87,2.48-1.49,3.931-1.78c1.62-1.59,3.84-2.57,6.29-2.57c0.43,0,0.859,0.03,1.279,0.101c0.58,0.08,1.15,0.22,1.69,0.409   c0.03,0.011,0.07,0.021,0.1,0.03c0.011-0.04,0.021-0.09,0.04-0.13c0.37-1.31,0.92-2.54,1.65-3.65c1.12-1.729,2.62-3.199,4.38-4.279   c0.55-0.33,1.12-0.63,1.71-0.88c1.65-0.7,3.47-1.11,5.38-1.11c1.86,0,3.63,0.37,5.24,1.05c2.6,1.08,4.78,2.94,6.27,5.28   c0.261-0.13,0.53-0.26,0.801-0.37c1.449-0.63,3.05-0.98,4.75-0.98c5.47,0,10.09,3.66,11.55,8.66c3.54,2.91,6.24,6.82,7.67,11.28   c0.39-0.03,0.77-0.11,1.17-0.11c5.85,0,10.84,3.511,13.06,8.53C320.14,126.91,320.16,127.21,320.16,127.5z"/>
	<path fill="#CCE9FF" d="M256.47,103.21c-0.02,0.04-0.029,0.09-0.04,0.13c-0.029-0.01-0.069-0.02-0.1-0.03   C256.38,103.27,256.42,103.24,256.47,103.21z"/>
	<path fill="#CCE9FF" d="M294.035,316.521c0,0.323,0.062,0.623,0.093,0.939l11.456-0.124v0.124l18.311-0.193   c0.562,0.123,1.14,0.193,1.74,0.193h57.023v-0.023c6.638-0.424,11.896-5.944,11.896-12.689c0-3.057-1.078-5.867-2.888-8.054   c0-0.007,0-0.016-0.008-0.016c-1.895-4.474-5.99-7.784-10.926-8.577c-1.64-2.102-4.204-3.457-7.084-3.457   c-0.431,0-0.862,0.031-1.278,0.1c-0.615,0.085-1.217,0.239-1.785,0.439c-0.37-1.355-0.94-2.626-1.694-3.772   c-1.456-2.271-3.581-4.081-6.091-5.159c-1.647-0.708-3.465-1.109-5.375-1.109c-4.843,0-9.1,2.526-11.518,6.33   c-0.255-0.139-0.523-0.262-0.793-0.377c-1.456-0.625-3.058-0.979-4.751-0.979c-5.475,0-10.095,3.657-11.549,8.662   c-3.543,2.91-6.245,6.814-7.678,11.28c-0.385-0.031-0.763-0.116-1.17-0.116c-6.275,0-11.565,4.059-13.521,9.663   c-1.248-0.771-2.695-1.231-4.266-1.231C297.686,308.374,294.035,312.023,294.035,316.521z"/>
</g>
</svg>