<svg xmlns="http://www.w3.org/2000/svg" xmlns:xlink="http://www.w3.org/1999/xlink" version="1.1" x="0px" y="0px" viewBox="0 0 500 500" style="enable-background:new 0 0 500 500;" xml:space="preserve">
<style type="text/css">
	.st0{fill:#D3D3D3;}
	.st1{fill:#CCE9FF;}
	.st2{fill:#FFFFFF;}
	.st3{fill:#2A94F4;}
	.st4{fill:none;}
	.st5{fill:#0E538D;}
	.st6{fill:#4478A0;}
	.st7{fill:#FFD597;}
	.st8{fill:#FFBE55;}
	.st9{fill:#F2F2F2;}
	.st10{fill:#094971;}
	.st11{fill:#EFA233;}
</style>
<g id="BACKGROUND">
</g>
<g id="OBJECTS">
</g>
<g id="DESIGNED_BY_FREEPIK">
	<g>
		<path class="st0" d="M329.4,107c-0.1,0-0.2,0-0.3-0.1c-0.3-0.2-0.4-0.5-0.3-0.8c1.1-2.1,1.7-3.3,1.7-3.3c0.1-0.3,0.5-0.4,0.8-0.3    c0.3,0.1,0.4,0.5,0.3,0.8c0,0-0.6,1.2-1.7,3.4C329.8,106.9,329.6,107,329.4,107z"/>
		<path class="st0" d="M196.8,294.3c-0.1,0-0.3,0-0.4-0.1c-0.3-0.2-0.3-0.6-0.1-0.9c1.6-1.9,3.2-3.9,4.8-5.8    c0.2-0.3,0.6-0.3,0.9-0.1c0.3,0.2,0.3,0.6,0.1,0.9c-1.6,2-3.2,3.9-4.8,5.8C197.1,294.2,196.9,294.3,196.8,294.3z M206.2,282.5    c-0.1,0-0.3,0-0.4-0.1c-0.3-0.2-0.3-0.6-0.1-0.9c1.5-2,3-4,4.5-6c0.2-0.3,0.6-0.3,0.9-0.1c0.3,0.2,0.3,0.6,0.1,0.9    c-1.5,2-3,4.1-4.5,6.1C206.5,282.4,206.4,282.5,206.2,282.5z M215,270.3c-0.1,0-0.2,0-0.4-0.1c-0.3-0.2-0.4-0.6-0.2-0.9    c1.4-2.1,2.8-4.2,4.1-6.3c0.2-0.3,0.6-0.4,0.9-0.2c0.3,0.2,0.4,0.6,0.2,0.9c-1.3,2.1-2.7,4.2-4.2,6.3    C215.4,270.2,215.2,270.3,215,270.3z M223.1,257.6c-0.1,0-0.2,0-0.3-0.1c-0.3-0.2-0.4-0.6-0.2-0.9c1.3-2.2,2.6-4.3,3.8-6.5    c0.2-0.3,0.6-0.4,0.9-0.2c0.3,0.2,0.4,0.6,0.2,0.9c-1.2,2.2-2.5,4.3-3.8,6.5C223.5,257.5,223.3,257.6,223.1,257.6z M230.5,244.5    c-0.1,0-0.2,0-0.3-0.1c-0.3-0.2-0.4-0.5-0.3-0.8c1.2-2.2,2.3-4.5,3.4-6.7c0.2-0.3,0.5-0.4,0.8-0.3c0.3,0.2,0.4,0.5,0.3,0.8    c-1.1,2.2-2.2,4.5-3.4,6.7C231,244.4,230.7,244.5,230.5,244.5z M237.1,230.9c-0.1,0-0.2,0-0.3-0.1c-0.3-0.1-0.5-0.5-0.3-0.8    c1-2.3,2-4.6,2.9-6.9c0.1-0.3,0.5-0.5,0.8-0.3c0.3,0.1,0.5,0.5,0.3,0.8c-0.9,2.3-1.9,4.6-2.9,7    C237.6,230.8,237.3,230.9,237.1,230.9z M242.7,216.9c-0.1,0-0.1,0-0.2,0c-0.3-0.1-0.5-0.5-0.4-0.8c0.8-2.4,1.6-4.8,2.3-7.1    c0.1-0.3,0.4-0.5,0.8-0.4c0.3,0.1,0.5,0.4,0.4,0.8c-0.7,2.4-1.5,4.8-2.3,7.2C243.2,216.8,242.9,216.9,242.7,216.9z M247,202.5    c0,0-0.1,0-0.1,0c-0.3-0.1-0.5-0.4-0.5-0.8c0.6-2.5,1.1-4.9,1.5-7.3c0.1-0.3,0.4-0.6,0.7-0.5c0.3,0.1,0.6,0.4,0.5,0.7    c-0.4,2.4-1,4.9-1.6,7.4C247.5,202.3,247.3,202.5,247,202.5z M235.9,189.3c-1.8,0-3.7-0.1-5.5-0.3c-0.3,0-0.6-0.3-0.6-0.7    c0-0.3,0.3-0.6,0.7-0.6c2.5,0.3,4.9,0.3,7.4,0.2c0.3,0,0.6,0.3,0.6,0.6c0,0.3-0.3,0.6-0.6,0.6    C237.3,189.3,236.6,189.3,235.9,189.3z M245.4,188.4c-0.3,0-0.6-0.2-0.6-0.5c-0.1-0.3,0.2-0.7,0.5-0.7c1.2-0.2,2.5-0.5,3.7-0.8    c0.2-2.3,0.3-4.6,0.3-6.8c0-0.3,0.3-0.6,0.6-0.6c0,0,0,0,0,0c0.3,0,0.6,0.3,0.6,0.6c0,2.1-0.1,4.2-0.3,6.4    c0.7-0.2,1.5-0.4,2.2-0.7c0.3-0.1,0.7,0.1,0.8,0.4c0.1,0.3-0.1,0.7-0.4,0.8c-0.9,0.3-1.8,0.6-2.8,0.8c-0.1,0.2-0.4,0.4-0.6,0.3    c-0.1,0-0.2,0-0.3-0.1c-1.2,0.3-2.5,0.6-3.7,0.8C245.5,188.4,245.5,188.4,245.4,188.4z M223,187.7c-0.1,0-0.1,0-0.2,0    c-2.6-0.6-5-1.4-7.2-2.3c-0.3-0.1-0.5-0.5-0.3-0.8c0.1-0.3,0.5-0.5,0.8-0.3c2.2,0.9,4.6,1.6,7.1,2.3c0.3,0.1,0.5,0.4,0.5,0.8    C223.6,187.5,223.3,187.7,223,187.7z M259.7,183.9c-0.2,0-0.5-0.1-0.6-0.4c-0.1-0.3,0-0.7,0.3-0.8c2.2-1,4.4-2.1,6.7-3.4    c0.3-0.2,0.7-0.1,0.9,0.2c0.2,0.3,0.1,0.7-0.2,0.9c-2.2,1.3-4.5,2.4-6.8,3.4C259.9,183.9,259.8,183.9,259.7,183.9z M209.2,182    c-0.1,0-0.2,0-0.3-0.1c-2.3-1.4-4.3-3.1-5.9-4.8c-0.2-0.3-0.2-0.6,0-0.9c0.3-0.2,0.6-0.2,0.9,0c1.6,1.7,3.5,3.3,5.7,4.6    c0.3,0.2,0.4,0.6,0.2,0.9C209.6,181.9,209.4,182,209.2,182z M272.8,176.5c-0.2,0-0.4-0.1-0.5-0.3c-0.2-0.3-0.1-0.7,0.2-0.9    c2-1.4,4-2.9,6-4.4c0.3-0.2,0.7-0.2,0.9,0.1c0.2,0.3,0.2,0.7-0.1,0.9c-2,1.6-4.1,3.1-6.1,4.5C273.1,176.5,273,176.5,272.8,176.5z     M249.6,172.7c-0.3,0-0.6-0.2-0.6-0.5c-0.3-2.6-0.8-5-1.5-7.3c-0.1-0.3,0.1-0.7,0.4-0.8c0.3-0.1,0.7,0.1,0.8,0.4    c0.7,2.3,1.2,4.8,1.5,7.5C250.2,172.3,250,172.6,249.6,172.7C249.6,172.7,249.6,172.7,249.6,172.7z M199,171.2    c-0.2,0-0.5-0.1-0.6-0.4c-1.1-2.3-1.9-4.8-2.2-7.4c0-0.3,0.2-0.7,0.5-0.7c0.4,0,0.7,0.2,0.7,0.5c0.3,2.4,1,4.8,2.1,7    c0.2,0.3,0,0.7-0.3,0.8C199.2,171.1,199.1,171.2,199,171.2z M284.6,167.2c-0.2,0-0.3-0.1-0.5-0.2c-0.2-0.3-0.2-0.7,0-0.9    c1.8-1.6,3.6-3.4,5.4-5.2c0.2-0.2,0.6-0.2,0.9,0c0.2,0.2,0.2,0.6,0,0.9c-1.8,1.8-3.7,3.6-5.5,5.2    C284.9,167.1,284.8,167.2,284.6,167.2z M245.2,158.4c-0.2,0-0.4-0.1-0.6-0.3c-1.2-2.3-2.4-4.5-3.7-6.5c-0.2-0.3-0.1-0.7,0.2-0.9    c0.3-0.2,0.7-0.1,0.9,0.2c1.3,2,2.6,4.2,3.8,6.6c0.2,0.3,0,0.7-0.3,0.8C245.3,158.4,245.3,158.4,245.2,158.4z M295.3,156.5    c-0.2,0-0.3-0.1-0.4-0.2c-0.3-0.2-0.3-0.6,0-0.9c1.6-1.8,3.3-3.7,4.9-5.6c0.2-0.3,0.6-0.3,0.9-0.1c0.3,0.2,0.3,0.6,0.1,0.9    c-1.6,2-3.3,3.9-5,5.7C295.6,156.5,295.5,156.5,295.3,156.5z M197.2,156.5c0,0-0.1,0-0.1,0c-0.3-0.1-0.6-0.4-0.5-0.7    c0.5-2.5,1.3-5,2.5-7.3c0.2-0.3,0.5-0.4,0.8-0.3c0.3,0.2,0.4,0.5,0.3,0.8c-1.1,2.2-1.9,4.5-2.4,6.9    C197.7,156.3,197.4,156.5,197.2,156.5z M236.8,145.9c-0.2,0-0.3-0.1-0.5-0.2c-1.8-1.9-3.6-3.6-5.5-4.9c-0.3-0.2-0.3-0.6-0.1-0.9    c0.2-0.3,0.6-0.3,0.9-0.1c2,1.4,3.9,3.1,5.7,5.1c0.2,0.3,0.2,0.7,0,0.9C237.1,145.9,237,145.9,236.8,145.9z M305,145    c-0.1,0-0.3,0-0.4-0.1c-0.3-0.2-0.3-0.6-0.1-0.9c1.5-1.9,3-4,4.5-6c0.2-0.3,0.6-0.3,0.9-0.1c0.3,0.2,0.3,0.6,0.1,0.9    c-1.5,2.1-3,4.1-4.5,6C305.4,144.9,305.2,145,305,145z M204,143.3c-0.2,0-0.3-0.1-0.4-0.2c-0.2-0.2-0.3-0.6,0-0.9    c1.8-1.9,3.9-3.5,6.2-4.6c0.3-0.2,0.7,0,0.8,0.3c0.2,0.3,0,0.7-0.3,0.8c-2.1,1.1-4.1,2.6-5.8,4.4    C204.3,143.2,204.1,143.3,204,143.3z M224.6,137.5c-0.1,0-0.1,0-0.2,0c-1.8-0.6-3.7-0.9-5.6-0.9c0,0,0,0,0,0c-0.5,0-1.1,0-1.6,0.1    c-0.3,0-0.6-0.2-0.7-0.6c0-0.3,0.2-0.6,0.6-0.7c0.6-0.1,1.2-0.1,1.7-0.1c2,0,4,0.3,6,0.9c0.3,0.1,0.5,0.5,0.4,0.8    C225.1,137.3,224.8,137.5,224.6,137.5z M313.9,132.8c-0.1,0-0.2,0-0.4-0.1c-0.3-0.2-0.4-0.6-0.2-0.9c1.4-2,2.8-4.2,4.1-6.3    c0.2-0.3,0.6-0.4,0.9-0.2c0.3,0.2,0.4,0.6,0.2,0.9c-1.4,2.1-2.8,4.2-4.2,6.3C314.3,132.7,314.1,132.8,313.9,132.8z M322,120.1    c-0.1,0-0.2,0-0.3-0.1c-0.3-0.2-0.4-0.6-0.2-0.9c1.3-2.2,2.6-4.4,3.8-6.5c0.2-0.3,0.5-0.4,0.9-0.2c0.3,0.2,0.4,0.6,0.2,0.9    c-1.2,2.2-2.5,4.4-3.8,6.5C322.4,120,322.2,120.1,322,120.1z"/>
	</g>
	<path id="XMLID_779_" class="st1" d="M125.9,185.8c-1.6,10.9,5.9,21,16.8,22.6c2.3,0.3,4.5,0.3,6.7-0.2L128,179.5   C127,181.4,126.3,183.5,125.9,185.8z"/>
	<path id="XMLID_772_" class="st2" d="M128,179.5l21.3,28.8c2.5-0.5,4.9-1.4,7-2.8l-23.6-31.9C130.8,175.2,129.2,177.2,128,179.5z"/>
	<path id="XMLID_627_" class="st2" d="M164,196.4c0.6-1.5,1.1-3.1,1.3-4.7c1.6-10.9-5.9-21-16.8-22.6c-1.7-0.2-3.3-0.3-4.9-0.1   L164,196.4z"/>
	<path id="XMLID_131_" class="st1" d="M132.7,173.6l23.6,31.9c3.4-2.2,6-5.3,7.6-9.1L143.6,169C139.5,169.4,135.8,171,132.7,173.6z"/>
	
		<rect id="XMLID_129_" x="166.9" y="200" transform="matrix(0.5173 -0.8558 0.8558 0.5173 -92.417 244.214)" class="st3" width="6.7" height="8"/>
	<g id="XMLID_583_">
		<g id="XMLID_657_">
			<path class="st4" d="M154.5,173.9c-8.1-4.9-18.6-2.3-23.5,5.8c-4.9,8.1-2.3,18.6,5.8,23.5c8.1,4.9,18.6,2.3,23.5-5.8     C165.2,189.3,162.6,178.8,154.5,173.9z"/>
		</g>
		<path id="XMLID_879_" class="st5" d="M156,171.4c-9.4-5.7-21.7-2.7-27.4,6.8c-5.7,9.4-2.7,21.7,6.8,27.4    c9.4,5.7,21.7,2.7,27.4-6.8C168.5,189.4,165.4,177.1,156,171.4z M160.3,197.4c-4.9,8.1-15.4,10.7-23.5,5.8    c-8.1-4.9-10.7-15.4-5.8-23.5c4.9-8.1,15.4-10.7,23.5-5.8C162.6,178.8,165.2,189.3,160.3,197.4z"/>
		<path id="XMLID_882_" class="st3" d="M158.8,166.8c-12-7.2-27.6-3.4-34.8,8.6c-7.2,12-3.4,27.6,8.6,34.8c12,7.2,27.6,3.4,34.8-8.6    C174.6,189.7,170.7,174.1,158.8,166.8z M162.8,198.9c-5.7,9.4-18,12.5-27.4,6.8c-9.4-5.7-12.5-18-6.8-27.4    c5.7-9.4,18-12.5,27.4-6.8C165.4,177.1,168.5,189.4,162.8,198.9z"/>
	</g>
	<path id="XMLID_124_" class="st3" d="M170.9,203.1l32.8,19.8l1.6-2.6c0.6-1,0.3-2.2-0.7-2.8l-31-18.7L170.9,203.1z"/>
	<path id="XMLID_123_" class="st5" d="M167.1,209.3l31,18.7c1,0.6,2.2,0.3,2.8-0.7l2.7-4.4l-32.8-19.8L167.1,209.3z"/>
	<g id="XMLID_216_">
		<g id="XMLID_385_">
			<g id="XMLID_775_">
				<path class="st4" d="M317.5,165.2c-11.1-1.3-21.3,6.6-22.6,17.8c-1.3,11.1,6.6,21.3,17.8,22.6c11.1,1.3,21.3-6.6,22.6-17.8      C336.6,176.7,328.6,166.6,317.5,165.2z"/>
			</g>
			<path id="XMLID_791_" class="st3" d="M352.7,179.9c0-0.1,0-0.2-0.1-0.3c0,0,0,0,0,0c-0.5-3.2-1.4-6.2-2.6-9.1l6-7.6l-4.7-6     l-1.6-2l-3.1-4l-8.8,4c-2.6-1.9-5.4-3.6-8.5-4.8l-1.1-9.6l-7.6-0.9l-2.6-0.3l-5-0.6l-2.3,6.1l-1.1,2.9c-0.1,0-0.2,0-0.3,0.1     c0,0,0,0,0,0c-3.1,0.5-6.2,1.4-9.1,2.6l-7.6-6l-6,4.7l-3,2.4l-3,2.4v0l4,8.8c0,0,0,0,0,0l0,0c-1.9,2.6-3.5,5.4-4.8,8.5l-9.6,1.1     l-0.9,7.6l-0.3,2.6l-0.6,5l9,3.3c0,0.1,0,0.2,0.1,0.3c0,0,0,0,0,0c0.5,3.1,1.4,6.2,2.6,9.1l-6,7.6l4.7,6l4.7,6l8.8-4     c2.6,1.9,5.4,3.6,8.5,4.8l1.1,9.6l7.6,0.9l7.6,0.9l3.3-9c3.3-0.5,6.4-1.4,9.4-2.6l7.6,6l6-4.7l6-4.7l-4-8.8     c1.9-2.6,3.6-5.4,4.8-8.5l9.6-1.1l0.9-7.6l0.3-2.6l0.6-5L352.7,179.9z M315.1,209.3c-13.2,0-23.9-10.7-23.9-23.9     c0-13.2,10.7-23.9,23.9-23.9c13.2,0,23.9,10.7,23.9,23.9C339,198.6,328.3,209.3,315.1,209.3z"/>
			<path id="XMLID_799_" class="st5" d="M315.1,161.5c-13.2,0-23.9,10.7-23.9,23.9c0,13.2,10.7,23.9,23.9,23.9     c13.2,0,23.9-10.7,23.9-23.9C339,172.2,328.3,161.5,315.1,161.5z M335.3,187.8c-1.3,11.1-11.4,19.1-22.6,17.8     c-11.1-1.3-19.1-11.4-17.8-22.6c1.3-11.1,11.4-19.1,22.6-17.8C328.6,166.6,336.6,176.7,335.3,187.8z"/>
		</g>
		<g id="XMLID_52_">
			<path id="XMLID_176_" class="st6" d="M315.1,202.4c-0.7,0-1.4,0-2-0.1l0.1-1c1.3,0.2,2.6,0.1,3.9,0l0.1,1     C316.5,202.3,315.8,202.4,315.1,202.4z M309.1,201.3c-1.3-0.5-2.5-1.1-3.6-1.9l0.6-0.8c1.1,0.7,2.2,1.3,3.4,1.8L309.1,201.3z      M321.1,201.3l-0.4-0.9c1.2-0.5,2.3-1.1,3.4-1.8l0.6,0.8C323.6,200.1,322.4,200.8,321.1,201.3z M302.4,196.7     c-0.9-1-1.7-2.2-2.3-3.4l0.9-0.5c0.6,1.1,1.3,2.2,2.2,3.2L302.4,196.7z M327.8,196.7l-0.7-0.7c0.9-1,1.6-2,2.2-3.2l0.9,0.5     C329.5,194.5,328.7,195.6,327.8,196.7z M298.6,189.5c-0.3-1.3-0.5-2.7-0.5-4.1l1,0c0,1.3,0.2,2.6,0.5,3.8L298.6,189.5z      M331.6,189.5l-1-0.2c0.3-1.2,0.5-2.5,0.5-3.8l0.7,0l0.3,0C332.1,186.8,331.9,188.1,331.6,189.5z M299.5,181.6l-1-0.2     c0.3-1.3,0.8-2.6,1.4-3.8l0.9,0.5C300.3,179.1,299.8,180.3,299.5,181.6z M330.6,181.5c-0.3-1.2-0.8-2.5-1.4-3.6l0.9-0.5     c0.6,1.2,1.1,2.5,1.5,3.8L330.6,181.5z M303.1,174.8l-0.8-0.7c0.9-1,1.9-1.9,3.1-2.7l0.6,0.8C304.9,173,303.9,173.8,303.1,174.8z      M327,174.7c-0.9-1-1.8-1.8-2.9-2.5l0.6-0.8c1.1,0.8,2.2,1.7,3.1,2.7L327,174.7z M309.4,170.4l-0.4-0.9c1.3-0.5,2.6-0.8,4-1     l0.1,1C311.8,169.7,310.6,170,309.4,170.4z M320.7,170.4c-1.2-0.5-2.5-0.8-3.7-0.9l0.1-1c1.4,0.2,2.7,0.5,4,1L320.7,170.4z"/>
		</g>
	</g>
	<g id="XMLID_62_">
		<g id="XMLID_63_">
			<g id="XMLID_93_">
				<polygon id="XMLID_94_" class="st7" points="183.7,79.8 179.5,76.1 177.3,78.6 177.3,78.6 181.5,82.3     "/>
			</g>
			<g id="XMLID_91_">
				<polygon id="XMLID_92_" class="st7" points="176,92.9 177.1,89.8 166.6,85.9 166.6,85.9 165.5,89     "/>
			</g>
			<g id="XMLID_89_">
				
					<rect id="XMLID_90_" x="169.9" y="100.3" transform="matrix(6.081214e-03 -1 1 6.081214e-03 67.4653 274.0545)" class="st7" width="3.3" height="5.6"/>
			</g>
			<g id="XMLID_87_">
				<polygon id="XMLID_88_" class="st7" points="177,116.4 175.8,113.3 165.3,117.1 165.3,117.1 166.4,120.2     "/>
			</g>
			<g id="XMLID_85_">
				<polygon id="XMLID_86_" class="st7" points="183.4,126.5 181.3,124 177,127.5 177,127.5 179.1,130.1 179.1,130.1     "/>
			</g>
			<g id="XMLID_83_">
				<polygon id="XMLID_84_" class="st7" points="187.2,143.4 192.8,133.8 190,132.1 184.4,141.8 184.4,141.8     "/>
			</g>
			<g id="XMLID_81_">
				<polygon id="XMLID_82_" class="st7" points="242.4,134 244.6,131.4 236,124.2 233.9,126.8 242.4,134     "/>
			</g>
			<g id="XMLID_79_">
				<polygon id="XMLID_80_" class="st7" points="245.9,118.8 247,115.7 241.6,113.6 240.4,116.7 240.4,116.7 245.9,118.8     "/>
			</g>
			<g id="XMLID_77_">
				<polygon id="XMLID_78_" class="st7" points="254.3,105.1 254.3,101.8 254.3,101.8 243.1,101.8 243.1,105.1     "/>
			</g>
			<g id="XMLID_75_">
				
					<rect id="XMLID_76_" x="240.9" y="89.1" transform="matrix(0.9409 -0.3388 0.3388 0.9409 -16.3178 87.9282)" class="st7" width="5.6" height="3.3"/>
			</g>
			<g id="XMLID_72_">
				<polygon id="XMLID_73_" class="st7" points="244.8,75.4 242.6,72.9 234.1,80 236.2,82.6 244.8,75.4     "/>
			</g>
			<g id="XMLID_70_">
				<polygon id="XMLID_71_" class="st7" points="227.4,74.5 230.4,69.7 227.6,68 227.6,68 224.6,72.7     "/>
			</g>
			<g id="XMLID_68_">
				<polygon id="XMLID_69_" class="st7" points="216.4,69.8 218.4,58.8 215.1,58.2 215.1,58.2 213.2,69.2     "/>
			</g>
			<g id="XMLID_66_">
				<polygon id="XMLID_67_" class="st7" points="204.5,69.2 203.8,63.7 203.8,63.7 200.5,64.1 201.2,69.7     "/>
			</g>
			<g id="XMLID_64_">
				<polygon id="XMLID_65_" class="st7" points="193.1,72.7 187.5,63 187.5,63 184.6,64.7 184.6,64.7 190.2,74.3     "/>
			</g>
		</g>
	</g>
	<path id="XMLID_57_" class="st2" d="M190.5,107.9c1.4,9.4,7.1,17,14.8,21.2c1.1,0.6,1.8,1.7,2,2.9l2.2,15.1l-9.7,1.4l-2.4-16.3   c-0.2-1.2-0.9-2.3-2-2.9c-7.7-4.2-13.4-11.9-14.8-21.2c-2.4-16.4,9.5-31.6,26.3-33c2.2-0.2,4.3-0.1,6.4,0.2   C198.4,78.4,188.3,92.6,190.5,107.9z"/>
	<path id="XMLID_127_" class="st7" d="M190.5,107.9c1.4,9.4,7.1,17,14.8,21.2c1.1,0.6,1.8,1.7,2,2.9l2.2,15.1l-9.7,1.4l-2.4-16.3   c-0.2-1.2-0.9-2.3-2-2.9c-7.7-4.2-13.4-11.9-14.8-21.2c-2.4-16.4,9.5-31.6,26.3-33c2.2-0.2,4.3-0.1,6.4,0.2   C198.4,78.4,188.3,92.6,190.5,107.9z"/>
	<path id="XMLID_56_" class="st8" d="M237.7,99.3c1.6,9.6-1.7,18.8-8,25.2c-0.9,0.9-1.3,2.1-1.1,3.3L231,144l-21.6,3.1l-2.2-15.1   c-0.2-1.2-0.9-2.3-2-2.9c-7.7-4.2-13.4-11.9-14.8-21.2c-2.2-15.3,7.9-29.4,22.8-32.5C225.5,77.2,235.7,86.7,237.7,99.3z"/>
	<path id="XMLID_607_" class="st0" d="M206.4,148.7l-1.8-12.7c-0.1-0.4,0.1-0.7,0.4-1l-8.2,1.2c-0.5,0.1-0.9,0.6-0.8,1.1l1.8,12.7   l10.7,7.3l15.5-2.2l0.1-0.1l-7,1L206.4,148.7z"/>
	<path id="XMLID_609_" class="st9" d="M231.4,132.3c-0.1-0.5-0.6-0.9-1.1-0.8l-25.2,3.6c-0.3,0.2-0.5,0.6-0.4,1l1.8,12.7l10.7,7.3   l7-1l9-10.1L231.4,132.3z"/>
	<path id="XMLID_46_" class="st3" d="M219.7,160.6l-5.8,0.8c-2.8,0.4-5.5-1.6-5.9-4.4l0,0l16.1-2.3l0,0   C224.5,157.6,222.5,160.2,219.7,160.6z"/>
	
		<rect id="XMLID_45_" x="196.2" y="136.2" transform="matrix(-0.9897 0.1434 -0.1434 -0.9897 445.5758 242.7257)" class="st3" width="35.7" height="2.5"/>
	
		<rect id="XMLID_44_" x="196.8" y="140.6" transform="matrix(-0.9897 0.1434 -0.1434 -0.9897 447.4811 251.4153)" class="st3" width="35.7" height="2.5"/>
	
		<rect id="XMLID_43_" x="197.5" y="145" transform="matrix(-0.9897 0.1434 -0.1434 -0.9897 449.3861 260.1057)" class="st3" width="35.7" height="2.5"/>
	<polygon class="st3" points="315.7,101.8 285.2,95.1 385.5,47.3  "/>
	<polygon class="st5" points="315.7,101.8 317.5,127.2 327.5,109.9 385.5,47.3  "/>
	<polygon class="st10" points="317.5,127.2 335.6,117.4 327.5,109.9  "/>
	<polygon class="st3" points="327.5,109.9 350.2,138.2 385.5,47.3  "/>
	<path id="XMLID_230_" class="st8" d="M304.2,379.6c23.1-20.9,37.9-52.4,37.9-87.7c0-16.9-3.4-32.9-9.5-47.4H141.5   c-6.1,14.4-9.4,30.4-9.5,47.3c0,0.1,0,0.1-0.1,0.2l-28.9,52.2l20.3,4.7l5.1,64.7c0,0.4,0.4,0.7,0.8,0.7l48.4-0.5c0.1,0,0.2,0,0.3,0   h20.8l8.1,38H320c0.5,0,0.9-0.5,0.8-1L304.2,379.6L304.2,379.6z"/>
	<path id="XMLID_556_" class="st11" d="M178,413.8c0.3,0.1,0.5,0.3,0.5,0.6l5.8,36.7c0.1,0.4,0.4,0.7,0.8,0.7h21.8l-8.1-38H178z"/>
</g>
</svg>